<mxfile host="app.diagrams.net" modified="2024-01-11T13:43:55.975Z" agent="Mozilla/5.0 (Windows NT 10.0; Win64; x64) AppleWebKit/537.36 (KHTML, like Gecko) Chrome/120.0.0.0 Safari/537.36" version="22.1.18" etag="0hk2Whu282BFT6q08YiM" type="device">
  <diagram id="xqXEC-mgUUK8uqNGGsM_" name="Page-1">
    <mxGraphModel dx="792" dy="1130" grid="1" gridSize="10" guides="1" tooltips="1" connect="1" arrows="1" fold="1" page="1" pageScale="1" pageWidth="1169" pageHeight="827" math="0" shadow="0">
      <root>
        <mxCell id="0" />
        <mxCell id="1" parent="0" />
        <mxCell id="n2ybh0vTUaBzuMdc3JuH-1" value="Artist" style="ellipse;whiteSpace=wrap;html=1;fillColor=#dae8fc;strokeColor=#6c8ebf;" vertex="1" parent="1">
          <mxGeometry x="320" y="60" width="90" height="60" as="geometry" />
        </mxCell>
        <mxCell id="n2ybh0vTUaBzuMdc3JuH-2" value="mo:MusicArtist" style="ellipse;whiteSpace=wrap;html=1;fillColor=#ffe6cc;strokeColor=#d79b00;" vertex="1" parent="1">
          <mxGeometry x="80" y="190" width="90" height="60" as="geometry" />
        </mxCell>
        <mxCell id="n2ybh0vTUaBzuMdc3JuH-3" value="&lt;font style=&quot;font-size: 12px;&quot;&gt;@type&lt;/font&gt;" style="endArrow=classic;html=1;rounded=0;exitX=0.011;exitY=0.65;exitDx=0;exitDy=0;exitPerimeter=0;" edge="1" parent="1" source="n2ybh0vTUaBzuMdc3JuH-1">
          <mxGeometry width="50" height="50" relative="1" as="geometry">
            <mxPoint x="380" y="600" as="sourcePoint" />
            <mxPoint x="130" y="190" as="targetPoint" />
          </mxGeometry>
        </mxCell>
        <mxCell id="n2ybh0vTUaBzuMdc3JuH-4" value="URL of Artist" style="ellipse;whiteSpace=wrap;html=1;fillColor=#ffe6cc;strokeColor=#d79b00;" vertex="1" parent="1">
          <mxGeometry x="320" y="190" width="90" height="60" as="geometry" />
        </mxCell>
        <mxCell id="n2ybh0vTUaBzuMdc3JuH-5" value="&lt;font style=&quot;font-size: 12px;&quot;&gt;@id&lt;/font&gt;" style="endArrow=classic;html=1;rounded=0;exitX=0.411;exitY=0.967;exitDx=0;exitDy=0;exitPerimeter=0;" edge="1" parent="1" source="n2ybh0vTUaBzuMdc3JuH-1" target="n2ybh0vTUaBzuMdc3JuH-4">
          <mxGeometry width="50" height="50" relative="1" as="geometry">
            <mxPoint x="380" y="600" as="sourcePoint" />
            <mxPoint x="430" y="550" as="targetPoint" />
          </mxGeometry>
        </mxCell>
        <mxCell id="n2ybh0vTUaBzuMdc3JuH-6" value="Name of the Artist" style="ellipse;whiteSpace=wrap;html=1;fillColor=#ffe6cc;strokeColor=#d79b00;" vertex="1" parent="1">
          <mxGeometry x="540" y="190" width="90" height="60" as="geometry" />
        </mxCell>
        <mxCell id="n2ybh0vTUaBzuMdc3JuH-8" value="" style="endArrow=classic;html=1;rounded=0;exitX=1;exitY=0.5;exitDx=0;exitDy=0;entryX=0;entryY=0;entryDx=0;entryDy=0;" edge="1" parent="1" source="n2ybh0vTUaBzuMdc3JuH-1" target="n2ybh0vTUaBzuMdc3JuH-6">
          <mxGeometry width="50" height="50" relative="1" as="geometry">
            <mxPoint x="380" y="600" as="sourcePoint" />
            <mxPoint x="430" y="550" as="targetPoint" />
          </mxGeometry>
        </mxCell>
        <mxCell id="n2ybh0vTUaBzuMdc3JuH-9" value="foaf:name" style="edgeLabel;html=1;align=center;verticalAlign=middle;resizable=0;points=[];fontSize=12;" vertex="1" connectable="0" parent="n2ybh0vTUaBzuMdc3JuH-8">
          <mxGeometry x="0.0166" relative="1" as="geometry">
            <mxPoint as="offset" />
          </mxGeometry>
        </mxCell>
      </root>
    </mxGraphModel>
  </diagram>
</mxfile>
